# xmcd
#
# Track frame offsets: 
#        150
#        17100
#        33178
#        50255
#        66788
#        86111
#        101130
#        116361
#        132911
#
# Disc length: 1984 seconds
#
# Revision: 0
# Processed by: cddbd v1.5.2PL0 Copyright (c) Steve Scherf et al.
# Submitted via: ExactAudioCopyFreeDBPlugin 1.0
#
DISCID=7107be09
DTITLE=Various Artist - Dog Star 2
DYEAR=1999
DGENRE=Country
TTITLE0=Jose Feliciano - Let's Find Each Other Tonight
TTITLE1=Phil Halliday - All Those Tears Ago
TTITLE2=Gary Martial - When She Said (That It's Over)
TTITLE3=Craig McIlveen - You Got a Hold on Me
TTITLE4=Luke Samuel Cox - Only If You Ask Me To
TTITLE5=Kenny Walsh - My Turn
TTITLE6=Ray Isaacs - Been in LA
TTITLE7=Anne Minnery - If Not For You (Where Would I Be)
TTITLE8=Kim Tate - Generosity
EXTD=
EXTT0=
EXTT1=
EXTT2=
EXTT3=
EXTT4=
EXTT5=
EXTT6=
EXTT7=
EXTT8=
PLAYORDER=
